<svg xmlns="http://www.w3.org/2000/svg" viewBox="0 0 217.46 241.46"><defs><style>.cls-1{fill:#fff;}</style></defs><g id="Слой_2" data-name="Слой 2"><g id="Слой_2-2" data-name="Слой 2"><path class="cls-1" d="M0,120.73a8.88,8.88,0,0,1,2.62-6.32L114.41,2.62a8.94,8.94,0,0,1,12.64,12.65L21.59,120.73,127.05,226.2a8.94,8.94,0,0,1-12.64,12.64L2.62,127.05A8.88,8.88,0,0,1,0,120.73Z"/><path class="cls-1" d="M87.78,120.73a8.88,8.88,0,0,1,2.62-6.32L202.19,2.62a8.94,8.94,0,0,1,12.65,12.65L109.37,120.73,214.84,226.2a8.94,8.94,0,0,1-12.65,12.64L90.4,127.05A8.88,8.88,0,0,1,87.78,120.73Z"/></g></g></svg>