<svg xmlns="http://www.w3.org/2000/svg" viewBox="0 0 217.46 241.46"><defs><style>.cls-1{fill:#fcfcfc;}</style></defs><g id="Слой_2" data-name="Слой 2"><g id="Слой_2-2" data-name="Слой 2"><path class="cls-1" d="M217.46,120.73a8.92,8.92,0,0,1-2.62,6.32L103.05,238.84A8.94,8.94,0,0,1,90.4,226.2L195.86,120.73,90.4,15.27A8.94,8.94,0,1,1,103.05,2.62L214.84,114.41A8.92,8.92,0,0,1,217.46,120.73Z"/><path class="cls-1" d="M129.67,120.73a8.88,8.88,0,0,1-2.62,6.32L15.27,238.84A8.94,8.94,0,0,1,2.62,226.2L108.08,120.73,2.62,15.27A8.94,8.94,0,0,1,15.27,2.62L127.05,114.41A8.88,8.88,0,0,1,129.67,120.73Z"/></g></g></svg>